<?xml version="1.0" encoding="utf-8"?>
<!-- Generator: Adobe Illustrator 19.2.0, SVG Export Plug-In . SVG Version: 6.00 Build 0)  -->
<svg version="1.1" id="Layer_1" xmlns="http://www.w3.org/2000/svg" xmlns:xlink="http://www.w3.org/1999/xlink" x="0px" y="0px"
	 viewBox="0 0 986.7 841.9" style="enable-background:new 0 0 986.7 841.9;" xml:space="preserve">
<style type="text/css">
	.st0{fill:url(#SVGID_1_);}
	.st1{fill:url(#SVGID_2_);}
	.st2{fill:url(#SVGID_3_);}
	.st3{fill:#FFFFFF;}
	.st4{fill:url(#SVGID_4_);}
	.st5{fill:url(#SVGID_5_);}
	.st6{fill:url(#SVGID_6_);}
	.st7{fill:url(#SVGID_7_);}
	.st8{fill:#171325;}
	.st9{fill:url(#SVGID_8_);}
	.st10{fill:url(#SVGID_9_);}
	.st11{fill:url(#SVGID_10_);}
	.st12{fill:url(#SVGID_11_);}
	.st13{fill:url(#SVGID_12_);}
	.st14{fill:url(#SVGID_13_);}
	.st15{fill:url(#SVGID_14_);}
	.st16{fill:url(#SVGID_15_);}
</style>
<linearGradient id="SVGID_1_" gradientUnits="userSpaceOnUse" x1="0" y1="420.945" x2="986.72" y2="420.945">
	<stop  offset="0" style="stop-color:#CD50E5"/>
	<stop  offset="1" style="stop-color:#6350E6"/>
</linearGradient>
<rect class="st0" width="986.7" height="841.9"/>
<g>
	<g>
		<path class="st3" d="M710.1,416.6c0,119.7-97,216.7-216.7,216.7c-34.6,0-67.3-8.1-96.3-22.6c-0.3-0.1-0.5-0.2-0.8-0.4
			c0.6,8.9,3,19.7,9.3,31.5c0,0-4-2.3-10-8.3c-0.1-0.1-0.1-0.2-0.3-0.3c-4.6-5.5-43.3-53.2-28.8-91c28.8-68,189.5,53.6,257.9-142.3
			c-144.2,47.5-162.8,7-264.1,31c-44.6,19.6-65.6,43.6-65.9,71.5c-11.4-26.3-17.7-55.4-17.7-85.9c0-119.7,97-216.7,216.7-216.7
			c57,0,108.8,22,147.4,57.9c16.9-0.9,28.9-3.2,36.8-5.3c8.2-2.2,12.1-4.3,12.9-4.7c-141.1,108.4-362-44.1-399.8,167
			c-1.9,10.3-3.3,21.6-4.2,33.7c27.1-43.1,56.6-60.3,88-66.4c85.3-16.5,185,49,291.3-96.7C693.6,321.8,710.1,367.3,710.1,416.6z"/>
		<path class="st3" d="M397,610.8c1.7,8.9,4.5,19.2,8.6,31.2c0,0-4-2.3-10-8.3c-0.1-0.1-0.1-0.2-0.3-0.3c-4.6-5.5-43.3-53.2-28.8-91
			c28.8-68,189.5,53.6,257.9-142.3C561.1,633.8,374.4,491,397,610.8z"/>
		<path class="st3" d="M690.5,247.8c-141.1,108.4-362-44.1-399.8,167C302.1,342.2,333,273,475.6,274c128.9,0.9,151.8-3.3,202-21.4
			C681.7,251,685.9,249.5,690.5,247.8z"/>
	</g>
</g>
</svg>
